# xmcd CD database file
#
# Track frame offsets:
#	150
#	9993
#	19164
#	28745
#	39546
#	57540
#	71511
#	81445
#	92487
#	101096
#	117223
#	128834
#	154006
#	165095
#
# Disc length: 2435 seconds
#
# Revision: 0
# Processed by: cddbd v1.5.2PL0 Copyright (c) Steve Scherf et al.
# Submitted via: CDex 1.51
#
DISCID=a909810e
DTITLE=Johnny Cash - God
DYEAR=2005
DGENRE=Country
TTITLE0=What On Earth Will You Do (For Heaven's Sake)
TTITLE1=My God Is Real
TTITLE2=It Was Jesus
TTITLE3=Why Me Lord?
TTITLE4=Greatest Cowboy of Them All
TTITLE5=Redemption
TTITLE6=Great Speckled Bird
TTITLE7=Old Account
TTITLE8=Swing Low, Sweet Chariot
TTITLE9=When He Comes
TTITLE10=Kneeling Drunkard's Plea
TTITLE11=Where You There When They Crucified My Lord?
TTITLE12=Man In White
TTITLE13=Belshazzar
EXTD=YEAR: 2005
EXTT0=
EXTT1=
EXTT2=
EXTT3=
EXTT4=
EXTT5=
EXTT6=
EXTT7=
EXTT8=
EXTT9=
EXTT10=
EXTT11=
EXTT12=
EXTT13=
PLAYORDER=
